<?xml version="1.0" encoding="UTF-8"?>
<svg id="Capa_2" data-name="Capa 2" xmlns="http://www.w3.org/2000/svg" xmlns:xlink="http://www.w3.org/1999/xlink" viewBox="0 0 170 170">
  <defs>
    <style>
      .cls-1 {
        fill: #fff;
      }

      .cls-2 {
        fill: #726658;
      }

      .cls-3 {
        fill: #ffd9ac;
      }

      .cls-4 {
        fill: #13b4be;
      }

      .cls-5 {
        fill: #d0d4d7;
      }

      .cls-6 {
        fill: #315d76;
      }

      .cls-7 {
        opacity: .1;
      }

      .cls-8 {
        clip-path: url(#clippath);
      }

      .cls-9 {
        fill: none;
      }

      .cls-10 {
        fill: #fee1b9;
      }

      .cls-11 {
        fill: #436b85;
      }

      .cls-12 {
        fill: #b9c7d0;
      }

      .cls-13 {
        fill: #61402f;
      }
    </style>
    <clipPath id="clippath">
      <path class="cls-9" d="m170,85C170,38.05,131.94,0,85,0S0,38.05,0,85s38.05,85,85,85,85-38.06,85-85Z"/>
    </clipPath>
  </defs>
  <g id="Objects">
    <g id="ava_08" data-name="ava 08">
      <path class="cls-4" d="m170,85C170,38.05,131.94,0,85,0S0,38.05,0,85s38.05,85,85,85,85-38.06,85-85Z"/>
      <path class="cls-7" d="m169.59,76.66l-44.69-44.69-5.68,5.68-3.36-3.36-6.4,6.4-12.43-12.43-47.5,47.5,21.39,21.39-3.99,3.99,58.59,58.59c26.49-14.4,44.46-42.46,44.46-74.73,0-2.81-.14-5.59-.41-8.34Z"/>
      <g class="cls-8">
        <g>
          <g>
            <g>
              <polygon class="cls-10" points="99.04 128.88 84.72 169.83 70.76 128.88 70.76 97.26 99.04 97.26 99.04 128.88"/>
              <polygon class="cls-3" points="84.72 169.83 99.04 128.88 99.04 97.26 84.72 97.26 84.72 169.83"/>
              <path class="cls-10" d="m46.86,69.19c-.48-4.72,2.09-8.95,5.74-9.44,3.65-.49,7,2.93,7.48,7.65.48,4.72-2.09,8.94-5.74,9.44-3.65.49-7-2.94-7.48-7.65Z"/>
              <g>
                <path class="cls-3" d="m115.42,76.86c-3.64-.41-6.09-4.57-5.48-9.3.61-4.73,4.05-8.25,7.69-7.84,3.64.4,6.09,4.57,5.48,9.3-.61,4.73-4.05,8.24-7.69,7.84Z"/>
                <g>
                  <path class="cls-10" d="m85,29.48s-30.02,1.3-30.02,17.31v32.61c0,6.3,10.19,24.32,19.38,25.07,4.6.38,10.64.89,10.64.89,0,0,6.04-.52,10.64-.89,9.19-.75,19.28-18.76,19.28-25.07v-31.72c0-16.01-29.92-18.2-29.92-18.2Z"/>
                  <path class="cls-10" d="m85,29.48s-30.02,1.3-30.02,17.31v32.61c0,6.3,10.19,24.32,19.38,25.07,4.6.38,10.64.89,10.64.89,0,0,6.04-.52,10.64-.89,9.19-.75,19.28-18.76,19.28-25.07v-31.72c0-16.01-29.92-18.2-29.92-18.2Z"/>
                  <path class="cls-3" d="m114.92,47.68v31.72c0,6.3-10.19,24.32-19.38,25.07-4.6.38-10.64.89-10.64.89V29.48s30.02,2.19,30.02,18.2Z"/>
                </g>
              </g>
              <path class="cls-10" d="m85,169.83v-50.41s-10.76-2.67-13.13-11.38c-1.14-4.19-1.1-3.26-1.1,1.05,0,12.95-30.5,7.38-38.76,17.39-6.5,9-11.01,43.36-11.01,43.36h64Z"/>
              <path class="cls-3" d="m84.9,169.83v-53.05s10.25-.2,12.22-5.17c.71-1.8,1.92-6.73,1.92-2.42,0,12.95,30.6,7.28,38.86,17.29,6.5,9,11.01,43.36,11.01,43.36h-64Z"/>
            </g>
            <g>
              <path class="cls-5" d="m67.02,115.02s-29.64,3.91-36.17,12.11c-5.3,6.64-8.94,35.12-10.64,42.87h64.79v-50.12l-17.98-4.86Z"/>
              <path class="cls-12" d="m102.98,115.02s29.81,4.01,36.34,12.21c5.3,6.64,8.78,35.03,10.48,42.78h-64.79v-50.12l17.98-4.86Z"/>
              <polyline class="cls-5" points="84.9 153.34 85 118.03 66.69 114.28 85 170"/>
              <polygon class="cls-11" points="87.07 128.47 91.21 124.3 85 118.04 78.79 124.3 82.93 128.47 77.29 158.96 85 170 92.73 158.96 87.07 128.47"/>
              <polygon class="cls-6" points="91.21 124.3 85 118.04 84.9 118.14 84.9 169.86 85 170 92.73 158.96 87.07 128.47 91.21 124.3"/>
              <polygon class="cls-5" points="85 118.03 99.69 110.6 107.26 115.02 94.91 132.65 85 118.03"/>
              <polygon class="cls-1" points="85 118.03 70.31 110.6 62.73 115.02 77.66 132.65 85 118.03"/>
            </g>
            <g>
              <path class="cls-1" d="m84.62,94.7c4.02,0,7.27-2.87,7.27-6.4h-14.55c0,3.53,3.26,6.4,7.27,6.4Z"/>
              <path class="cls-2" d="m101.77,71.13c0-1.38-1.12-2.5-2.5-2.5s-2.5,1.12-2.5,2.5,1.12,2.5,2.5,2.5,2.5-1.12,2.5-2.5Z"/>
              <path class="cls-2" d="m72.71,70.13c0-1.38-1.12-2.5-2.5-2.5s-2.5,1.12-2.5,2.5,1.12,2.5,2.5,2.5,2.5-1.12,2.5-2.5Z"/>
              <path class="cls-13" d="m75.28,65.38c-.15,0-.3-.07-.4-.2-.89-1.2-2.68-1.95-4.67-1.95s-3.77.75-4.67,1.95c-.16.22-.48.27-.7.1-.22-.16-.27-.48-.1-.7,1.08-1.45,3.17-2.35,5.47-2.35s4.39.9,5.47,2.35c.16.22.12.54-.1.7-.09.07-.19.1-.3.1Z"/>
              <path class="cls-13" d="m104.39,65.38c-.15,0-.3-.07-.4-.2-.89-1.2-2.68-1.95-4.67-1.95s-3.77.75-4.67,1.95c-.16.22-.48.27-.7.1-.22-.16-.27-.48-.1-.7,1.08-1.45,3.17-2.35,5.47-2.35s4.39.9,5.47,2.35c.16.22.12.54-.1.7-.09.07-.19.1-.3.1Z"/>
            </g>
          </g>
          <g>
            <path class="cls-13" d="m52.08,66.14h2.87l3.83-26.66s-8.73-3.42-10.52,7.05c-1.79,10.47,3.82,19.61,3.82,19.61Z"/>
            <path class="cls-13" d="m116.33,66.14h-2.87l-3.83-26.66s8.73-3.42,10.52,7.05c1.79,10.47-3.82,19.61-3.82,19.61Z"/>
            <path class="cls-13" d="m55.46,42.15s12.22,9.49,29.14,9.49,32.92-5.24,40.19-19.5c-.4.12-12.96-2.17-28.7-14.17-19.83-15.13-57.02,7.37-40.63,24.18Z"/>
          </g>
        </g>
      </g>
    </g>
  </g>
</svg>