<?xml version="1.0" encoding="UTF-8"?>
<svg xmlns="http://www.w3.org/2000/svg" xmlns:xlink="http://www.w3.org/1999/xlink" viewBox="0 0 188.15 188.15">
  <defs>
    <style>
      .cls-1, .cls-2 {
        fill: #ecc19c;
      }

      .cls-3 {
        isolation: isolate;
      }

      .cls-4 {
        fill: #c5d4e2;
      }

      .cls-5 {
        fill: #141720;
      }

      .cls-6 {
        fill: #415364;
      }

      .cls-7 {
        fill: #eb6d4a;
      }

      .cls-8 {
        fill: #543e36;
      }

      .cls-2 {
        mix-blend-mode: multiply;
        opacity: .5;
      }

      .cls-9 {
        clip-path: url(#clippath);
      }

      .cls-10 {
        fill: #1a1a1a;
      }

      .cls-11 {
        fill: #e7ecf2;
      }
    </style>
    <clipPath id="clippath">
      <circle class="cls-7" cx="94.07" cy="94.07" r="94.07" transform="translate(-38.97 94.07) rotate(-45)"/>
    </clipPath>
  </defs>
  <g class="cls-3">
    <g id="Capa_2" data-name="Capa 2">
      <g id="OBJECTS">
        <g>
          <circle class="cls-7" cx="94.07" cy="94.07" r="94.07" transform="translate(-38.97 94.07) rotate(-45)"/>
          <g class="cls-9">
            <path class="cls-1" d="m135.94,52.78v31.27c0,.45-.01.9-.02,1.36-.02.94-.07,1.87-.15,2.8-.02.32-.05.64-.09.96-.13,1.33-.32,2.63-.56,3.93-.08.43-.16.85-.26,1.27-.01.09-.03.17-.05.26-.08.43-.19.85-.29,1.27-.04.23-.1.45-.15.68-.05.2-.1.39-.16.59-.22.84-.46,1.67-.72,2.49-.12.39-.25.77-.38,1.16-.01.04-.03.08-.04.12-.12.35-.25.7-.37,1.05-.04.1-.08.21-.12.32-.12.33-.25.66-.38.99-.15.4-.32.79-.48,1.18-.14.35-.3.7-.45,1.05-.02.06-.05.11-.07.17-.17.37-.34.74-.51,1.1-.17.38-.36.76-.56,1.14-.37.75-.77,1.5-1.17,2.23l-.56.99c-1.58,2.72-3.34,5.28-5.25,7.65-.26.34-.52.67-.8.99-.38.46-.77.92-1.16,1.36-.35.39-.7.78-1.06,1.16-.99,1.06-1.99,2.07-3.02,3.01-.21.21-.42.39-.64.59-.35.32-.7.63-1.06.93-.28.25-.57.48-.85.72-.74.61-1.48,1.19-2.23,1.74-.31.24-.63.46-.95.68-.51.37-1.04.72-1.56,1.06-.29.2-.59.38-.88.56-1.05.65-2.11,1.24-3.16,1.76-.26.13-.51.26-.77.38-.26.12-.52.25-.8.37-.34.15-.68.3-1.02.43-.13.06-.27.11-.4.15-.4.16-.81.32-1.21.45-.5.19-1.02.34-1.52.48-.35.1-.71.2-1.06.28-.02.01-.04.02-.07.02-.35.08-.7.16-1.05.23-.09.02-.19.04-.28.05-.29.05-.58.1-.86.13-.41.06-.82.11-1.23.13-.14.02-.28.03-.42.03-.33.02-.66.03-.98.03h-.03c-.32,0-.64-.01-.96-.03-.12,0-.25-.01-.37-.03-.29-.01-.59-.04-.89-.08-.06,0-.13-.01-.2-.02-.38-.05-.76-.11-1.15-.19-.33-.05-.66-.12-1-.21-1.76-.4-3.57-1.01-5.4-1.82-1.56-.69-3.15-1.52-4.72-2.49-.79-.48-1.58-1-2.36-1.54-.39-.28-.78-.56-1.17-.84-1.22-.89-2.44-1.87-3.63-2.92-.33-.3-.66-.6-.99-.9-.33-.3-.66-.61-.98-.9-.8-.77-1.58-1.57-2.34-2.41-.3-.32-.6-.65-.89-.99-.82-.93-1.62-1.88-2.39-2.88-.3-.36-.58-.73-.85-1.1-1.04-1.38-2.03-2.82-2.95-4.31-.25-.4-.49-.81-.73-1.21-.29-.48-.57-.98-.84-1.47-1.03-1.85-1.97-3.77-2.8-5.76-.12-.29-.25-.58-.35-.86-.16-.37-.31-.75-.44-1.12-.21-.55-.4-1.09-.59-1.63s-.36-1.1-.53-1.66c-.16-.53-.32-1.07-.46-1.61-.16-.58-.32-1.16-.45-1.76-.01-.06-.03-.12-.04-.19-.2-.82-.37-1.66-.52-2.5-.21-1.11-.37-2.24-.49-3.38-.05-.36-.08-.72-.11-1.08-.04-.38-.07-.75-.09-1.13-.05-.69-.08-1.39-.1-2.09-.01-.45-.02-.9-.02-1.36v-31.27c0-23.1,18.72-41.83,41.82-41.86h.04c3.19,0,6.29.36,9.27,1.03,2.72.62,5.35,1.5,7.83,2.62,3.39,1.52,6.55,3.48,9.39,5.81,2.39,1.95,4.55,4.15,6.45,6.58,5.58,7.11,8.91,16.07,8.91,25.82Z"/>
            <path class="cls-1" d="m148.61,200.74h0s-109.07.01-109.07.01h0c0-6.17,1.02-12.1,2.91-17.62.34-1,.71-1.98,1.11-2.96h0c.4-.99.82-1.94,1.27-2.89,1.8-3.79,4.04-7.34,6.64-10.59.66-.81,1.33-1.6,2.02-2.36.34-.39.7-.77,1.06-1.15.36-.37.72-.74,1.09-1.11,1.84-1.84,3.81-3.53,5.89-5.08,1.04-.77,2.09-1.49,3.18-2.19,1.09-.69,2.2-1.35,3.33-1.96.02-.02.04-.02.04-.02.44-.24.87-.49,1.31-.76.85-.51,1.7-1.07,2.5-1.67.41-.29.8-.59,1.19-.9.93-.74,1.82-1.53,2.67-2.36.28-.28.56-.56.83-.84.58-.6,1.12-1.22,1.64-1.86.26-.31.51-.63.75-.95.25-.32.48-.65.72-.98,1.83-2.55,3.3-5.36,4.38-8.35,1.31-3.64,2.02-7.56,2.02-11.65l7.95.04,8.17.04c0,4.04.69,7.92,1.96,11.52,1.06,3,2.53,5.81,4.33,8.36,1.87,2.65,4.1,5.02,6.63,7.04.38.31.76.61,1.14.88.37.28.75.54,1.14.8.08.06.15.11.24.16.37.25.74.49,1.13.72.42.26.85.51,1.29.75.07.02.13.05.19.09.9.5,1.8,1.03,2.67,1.57.42.26.84.52,1.25.82.85.56,1.69,1.14,2.5,1.76,0,.01.01.01.01.01h.01c2.08,1.55,4.04,3.25,5.88,5.08,9.91,9.87,16.03,23.5,16.03,38.6Z"/>
            <path class="cls-4" d="m148.61,200.74H39.54c0-6.16,1.02-12.09,2.91-17.61.34-1,.71-1.98,1.11-2.96-.01-.01,0-.01,0-.01.39-.98.82-1.93,1.27-2.88,1.8-3.79,4.04-7.34,6.64-10.59.66-.81,1.33-1.6,2.02-2.36.34-.39.7-.77,1.06-1.15.36-.37.72-.74,1.09-1.11,1.84-1.84,3.81-3.53,5.89-5.08,1.04-.77,2.09-1.49,3.18-2.19,1.09-.7,2.2-1.36,3.33-1.97.02-.02.04-.01.04-.01h0c.44-.26.87-.5,1.31-.76,1.29-.78,2.52-1.65,3.67-2.59l.02.02c5.33,5.45,12.74,8.83,20.96,8.85h.08c8.23,0,15.67-3.39,21.02-8.84h.01c.73.6,1.49,1.16,2.27,1.69.08.06.15.11.24.16.37.25.75.48,1.13.72.42.26.85.5,1.29.74.07.02.12.06.19.09.9.5,1.8,1.03,2.67,1.58.42.26.84.52,1.25.82.85.54,1.69,1.14,2.5,1.76h.02c2.09,1.56,4.05,3.26,5.88,5.09,9.91,9.87,16.03,23.5,16.03,38.6Z"/>
            <path class="cls-8" d="m135.94,84.05c0,.45-.01.9-.02,1.36-.02.94-.07,1.87-.15,2.8-.02.32-.05.64-.09.96-.13,1.33-.32,2.63-.56,3.93-.08.43-.16.85-.26,1.27-.01.09-.03.17-.05.26-.08.43-.19.85-.29,1.27-.05.25-.11.48-.18.72-.03.18-.08.37-.13.54-.22.84-.46,1.67-.72,2.49-.12.39-.25.77-.38,1.16-.01.04-.03.08-.04.12-.12.35-.25.7-.37,1.05-.04.1-.08.21-.12.32-.12.33-.25.66-.38.99-.15.4-.32.79-.48,1.18-.14.35-.3.7-.45,1.05-.02.06-.05.11-.07.17-.17.37-.34.74-.51,1.1-.17.38-.36.76-.56,1.14-.37.75-.77,1.5-1.17,2.23l-.56.99c-1.58,2.72-3.34,5.28-5.25,7.65-.26.34-.52.67-.8.99-.38.46-.77.92-1.16,1.36-.35.39-.7.78-1.06,1.16-.99,1.06-1.99,2.07-3.02,3.01-.21.21-.42.39-.64.59-.35.32-.7.63-1.06.93-.28.25-.57.48-.85.72-.74.61-1.48,1.19-2.23,1.74-.31.24-.63.46-.95.68-.51.37-1.04.72-1.56,1.06-.29.2-.59.38-.88.56-1.05.65-2.11,1.24-3.16,1.76-.26.13-.51.26-.77.38-.26.12-.52.25-.8.37-.34.15-.68.3-1.02.43-.13.06-.27.11-.4.15-.4.16-.81.32-1.21.45-.5.19-1.02.34-1.52.48-.35.1-.71.2-1.06.28-.02.01-.04.02-.07.02-.35.08-.7.16-1.05.23-.09.02-.19.04-.28.05-.29.05-.58.1-.86.13-.41.06-.82.11-1.23.13-.14.02-.28.03-.42.03-.33.02-.66.03-.98.03h-.03c-.32,0-.64-.01-.96-.03-.12,0-.25-.01-.37-.03-.29-.01-.59-.04-.89-.08-.06,0-.13-.01-.2-.02-.38-.05-.76-.11-1.15-.19-.33-.05-.66-.12-1-.21-1.76-.4-3.57-1.01-5.4-1.82-1.56-.69-3.15-1.52-4.72-2.49-.79-.47-1.57-.99-2.36-1.54-.39-.28-.78-.56-1.17-.84-1.22-.89-2.44-1.87-3.63-2.92-.33-.3-.66-.6-.99-.9-.33-.3-.66-.61-.98-.9-.8-.77-1.58-1.57-2.34-2.41-.3-.32-.6-.65-.89-.99-.82-.93-1.62-1.88-2.39-2.88-.3-.36-.58-.73-.85-1.1-1.04-1.38-2.03-2.82-2.95-4.31-.25-.4-.49-.81-.73-1.21-.29-.48-.57-.98-.84-1.47-1.03-1.85-1.97-3.77-2.8-5.76-.12-.29-.25-.58-.35-.86-.16-.37-.31-.75-.44-1.12-.21-.55-.4-1.09-.59-1.63s-.36-1.1-.53-1.66c-.16-.53-.32-1.07-.46-1.61-.16-.58-.32-1.16-.45-1.76-.01-.06-.03-.12-.04-.19-.2-.82-.37-1.66-.52-2.5-.21-1.11-.37-2.24-.49-3.38-.05-.36-.08-.72-.11-1.08-.04-.38-.07-.75-.09-1.13-.05-.69-.08-1.39-.1-2.09-.01-.45-.02-.9-.02-1.36l6.68,13.14,11.48,5.01,13.58,1.22,10.08.92h.06l9.43.85,21,1.89,11.4-23.03Z"/>
            <path class="cls-8" d="m127.02,26.97c-2.05,4.64-4.71,8.94-7.85,12.85-.19.23-.37.45-.57.68-6.45,7.76-14.9,13.8-24.56,17.32-2.54.94-5.16,1.7-7.85,2.26-1.8.38-3.63.68-5.49.89-2.14.24-4.32.36-6.53.36-2.53,0-5.01-.16-7.44-.48-2.39-.3-4.72-.74-7-1.34-1.31-.33-2.58-.71-3.85-1.13-1.24-.41-2.46-.86-3.66-1.36v-4.25c0-23.1,18.72-41.83,41.82-41.86h.04c3.19,0,6.29.36,9.27,1.03,2.72.62,5.35,1.5,7.83,2.62,3.39,1.52,6.55,3.48,9.39,5.81,2.39,1.95,4.55,4.15,6.45,6.58Z"/>
            <path class="cls-8" d="m135.94,52.78v8.24c-7.14-5.52-13.05-12.5-17.31-20.48-.01-.01-.01-.03-.02-.04-4.19-7.83-6.8-16.62-7.41-25.92,3.39,1.52,6.55,3.48,9.39,5.81,2.39,1.95,4.55,4.15,6.45,6.58,5.58,7.11,8.91,16.07,8.91,25.82Z"/>
            <path class="cls-8" d="m57.12,56.01c-.44.77-.84,1.56-1.24,2.38-.15.32-.31.66-.46.99-2.03,4.5-3.04,8.92-3.19,12.91,0,.11-.01.24-.01.35v-16.12c0-.58.02-1.14.02-1.7,1.62.42,3.25.83,4.88,1.19Z"/>
            <path class="cls-8" d="m131.05,56.01c.62,1.09,1.18,2.21,1.71,3.36,2.09,4.64,3.11,9.18,3.2,13.27v-16.13c0-.57-.02-1.13-.02-1.69-1.62.42-3.24.82-4.89,1.19Z"/>
            <path class="cls-10" d="m130.97,60.17c0-.17-.13-.33-.31-.35-1.48-.23-8.14-1.14-15.31-1.14-8.13,0-18.63,2.55-20.46,2.55h-1.62c-.85,0-3.59-.56-7.08-1.14-4.02-.68-9.04-1.41-13.38-1.41-5.24,0-10.22.49-13.09.84-1.05.12-1.82.24-2.22.3-.17.02-.31.17-.31.35l-.08,4.37c0,.15.09.29.24.35l.49.17c.73.28.67,13.45,4.6,16.74,2.33,1.94,4.41,3.05,13.16,3.05,5.07,0,8.26-1.37,11.28-5.45,2.18-2.93,4.11-9.86,4.11-9.86.59-2.86,2.71-3.08,3.05-3.1h.04c.07,0,2.47.04,3.09,3.1,0,0,1.93,6.93,4.11,9.86,3.02,4.08,6.21,5.45,11.28,5.45,8.75,0,10.83-1.11,13.16-3.05,3.93-3.29,3.87-16.46,4.6-16.74l.49-.17c.14-.06.24-.2.24-.35l-.08-4.37Zm-44.1,15.59c-1.29,3.04-4.61,6.97-9.28,7.21-14.03.71-14.68-3.21-15.59-6.31-.91-3.1-1.15-5.83-.79-8.93.37-3.11,1.15-4.92,2.56-5.84.61-.4,1.26-.76,2.95-1.02,1.51-.23,3.85-.36,7.73-.36,2.25,0,4.36.17,6.24.48,5,.8,8.37,2.5,8.37,4.17,0,1.14-.29,6.1-2.19,10.6Zm39.29.89c-.9,3.11-1.55,7.02-15.59,6.31-4.68-.24-8-4.16-9.28-7.21-1.9-4.5-2.19-9.46-2.19-10.6,0-2.3,6.4-4.66,14.61-4.66s9.53.62,10.68,1.38c1.41.92,2.19,2.73,2.56,5.84.36,3.1.12,5.83-.79,8.93Z"/>
            <g>
              <path class="cls-8" d="m94.12,90.65v10.14s-.02,3.55-.02,3.55v12.04s-.01.01-.01.01h-.01s-.01-.01-.01-.01l-.03-.02-40.44-20.58c-.01-.06-.03-.12-.04-.19-.2-.82-.37-1.66-.52-2.5-.21-1.11-.37-2.24-.49-3.38-.05-.36-.08-.72-.11-1.08-.04-.38-.07-.75-.09-1.13-.05-.69-.08-1.39-.1-2.09-.01-.45-.02-.9-.02-1.36v-12.29c0,.17.01.35.01.52.08,2.97.56,6.24,1.47,9.58.71,2.57,1.59,4.95,2.62,7.06h0c2.69,5.61,6.3,9.42,9.62,10.03.21.03.42.05.63.07,1.29.14,2.63.23,4.02.23,5.24,0,9.9-4.22,12.83-5.92.02-.01.04-.02.06-.03.15-.09.31-.19.44-.28.04-.03.08-.05.12-.07,2.47-1.41,6.02-2.3,9.99-2.31h.08Z"/>
              <path class="cls-8" d="m135.95,71.76v12.29c-.01,3.08-.3,6.11-.83,9.04-.22,1.17-.46,2.33-.75,3.49l-9.49,13.7-30.78,6.1h-.02s0,0,0,0l-.03-25.73h.08c3.97.01,7.54.9,10,2.31.04.02.07.04.11.07.14.09.3.19.45.28.01.01.03.02.05.03,2.94,1.71,7.59,5.93,12.83,5.93,1.39,0,2.73-.08,4.02-.23.22-.02.42-.04.64-.07,3.31-.62,6.93-4.42,9.61-10.02h0c1.03-2.13,1.91-4.5,2.62-7.07.93-3.39,1.41-6.7,1.47-9.72.01-.13.01-.26.01-.39Z"/>
            </g>
            <ellipse class="cls-1" cx="94.07" cy="103.96" rx="10.25" ry="3.17"/>
            <g>
              <path class="cls-6" d="m64.13,155.17v56.56h-4.37v-53.37c.59-.47,1.17-.94,1.77-1.38.85-.64,1.72-1.23,2.6-1.81Z"/>
              <polygon class="cls-6" points="124.02 155.18 124.02 200.74 124.02 211.73 128.39 211.73 128.39 200.74 128.39 158.37 124.02 155.18"/>
            </g>
            <g>
              <g>
                <polygon class="cls-5" points="82.11 151.71 94.07 166.05 106.04 151.71 82.11 151.71"/>
                <path class="cls-5" d="m94.07,225.44h-7.07l5.11-65.8c.21.84,3.71.84,3.93,0l5.11,65.8h-7.07Z"/>
              </g>
              <g>
                <path class="cls-11" d="m94.07,151.64l-.03.05v.02s-4.98,8.34-4.98,8.34l-4.64,7.77-12.55-17.45c.4-.29.8-.6,1.18-.92l.02.02c2.52-2,4.76-4.36,6.62-6.99l14.34,9.13.03.02Z"/>
                <path class="cls-11" d="m116.28,150.37l-12.55,17.45-4.64-7.77-4.98-8.34-.04-.07,14.43-9.19c1.87,2.65,4.1,5.02,6.63,7.04.38.31.76.61,1.14.88Z"/>
              </g>
            </g>
            <path class="cls-2" d="m94.04,10.93v189.82h-54.5c0-6.17,1.02-12.1,2.91-17.62.34-1,.71-1.98,1.11-2.96h0c.39-.99.82-1.94,1.27-2.89,1.8-3.79,4.04-7.34,6.64-10.59.66-.81,1.33-1.6,2.02-2.36.34-.39.7-.77,1.06-1.15.36-.37.72-.74,1.09-1.11,1.31-1.31,2.69-2.54,4.12-3.7.59-.47,1.17-.94,1.77-1.38.85-.64,1.72-1.23,2.6-1.81.2-.13.38-.26.58-.38,1.09-.7,2.2-1.36,3.33-1.97.02-.02.04-.01.04-.01h0c.44-.26.87-.5,1.31-.76.85-.52,1.69-1.08,2.49-1.68.4-.29.8-.6,1.18-.92l.02.02c2.52-2,4.76-4.36,6.62-6.99,1.83-2.55,3.3-5.36,4.38-8.35-1.56-.69-3.15-1.52-4.72-2.49-.79-.47-1.57-.99-2.36-1.54-.39-.28-.78-.56-1.17-.84-1.22-.89-2.44-1.87-3.63-2.92-.33-.3-.66-.6-.99-.9-.33-.3-.66-.61-.98-.9-.8-.77-1.58-1.57-2.34-2.41-.3-.32-.6-.65-.89-.99-.82-.93-1.62-1.88-2.39-2.88-.3-.36-.58-.73-.85-1.1-1.04-1.38-2.03-2.82-2.95-4.31-.25-.4-.49-.81-.73-1.21-.29-.48-.57-.98-.84-1.47-1.03-1.85-1.97-3.77-2.8-5.76-.12-.29-.25-.58-.35-.86-.16-.37-.31-.75-.44-1.12-.21-.54-.4-1.09-.59-1.63-.19-.54-.36-1.1-.53-1.66-.16-.53-.32-1.07-.46-1.61-.16-.58-.32-1.16-.45-1.76-.01-.06-.03-.12-.04-.19-.2-.82-.37-1.66-.52-2.5-.21-1.11-.37-2.24-.49-3.38-.05-.36-.08-.72-.11-1.08-.04-.38-.07-.75-.09-1.13-.05-.69-.08-1.39-.1-2.09-.01-.45-.02-.9-.02-1.36v-31.27c0-23.1,18.72-41.83,41.82-41.86Z"/>
          </g>
        </g>
      </g>
    </g>
  </g>
</svg>